#!OML:ASF F:\VICON\USERDATA\INSTALL\rory3\rory3.ASF
:FULLY-SPECIFIED
:DEGREES
28
root 0.39263463589474784 18.432248854852002 -18.631299119339797 6.532566783723645 -2.846365445625392 -1.7786887752482115
lfemur -32.26525161628446 -1.658007064072216 -20.524741031069258
ltibia 51.86828687092325
lfoot 5.7851054349456525 -18.1428960894265
ltoes -7.60480650107996
rfemur 11.911082884328554 7.937120247772645 30.432103021745974
rtibia 28.193298853468875
rfoot 23.71153334243199 -3.197936880603992
rtoes 2.719327351937049
lowerback 12.868025626017289 1.4052921356049959 1.5752023662959702
upperback -1.5144118978352665 1.9756445481203273 -0.3388520969274451
thorax -9.680345896450063 0.9848361734835185 -0.07260832461816885
lowerneck -17.098700843474045 -4.285888393239366 -2.5121558669225763
upperneck 8.732893678910195 -5.575374706124024 3.633239960082631
head 4.622140567453305 -2.6966521468847593 1.2251226785104536
lclavicle -1.3367475555097561e-15 -2.7589793148425598e-15
lhumerus -65.7792934796409 0.900709166476501 84.09544452513383
lradius 102.04075633005598
lwrist 29.836178949757322
lhand -21.096939422846898 4.185188007112672
lfingers 7.12502
lthumb 5.103150025011425 33.75361576217126
rclavicle -1.3367475555019194e-15 -2.7589793148400492e-15
rhumerus -41.18102872234149 17.89753377446157 -99.4240423543759
rradius 124.82287936888801
rwrist -22.684884750923604
rhand -17.07557396014914 39.71467133948788
rfingers 7.12502
rthumb 9.161613579256525 9.692011227150322
29
root 0.4311529071323451 18.451413045908204 -16.875900967515328 6.518424506452137 -2.6669048840750142 -1.6961888339097195
lfemur -30.5121674762237 -2.1868788495986555 -20.888164336152666
ltibia 46.72751485823297
lfoot 6.4921635832836575 -18.536877595854683
ltoes -7.321636958088755
rfemur 11.915686935201055 8.287161283450635 30.487060943477182
rtibia 29.37245569281949
rfoot 24.342752941940503 -3.1974312552360007
rtoes 4.302402241085243
lowerback 12.650657841784597 1.3518226444873458 1.6114992783443063
upperback -1.5715255570224338 1.9466337120144819 -0.5052392517092692
thorax -9.361347952885872 0.9667630332004836 -0.19265035287445198
lowerneck -16.857834182979907 -4.046937080718399 -2.6620116933536604
upperneck 8.921735671451241 -5.273508271136741 3.851952431043188
head 4.683897480097981 -2.561565067836363 1.320511564061869
lclavicle -1.3367475555335192e-15 -2.7589793148620198e-15
lhumerus -64.7821661158714 1.0563259758366188 83.52364955892341
lradius 101.46127165588786
lwrist 29.74471594886036
lhand -21.038024394679226 4.31716710946552
lfingers 7.12502
lthumb 5.270377353934853 33.71804727504621
rclavicle -1.3367475555303689e-15 -2.758979314863223e-15
rhumerus -41.41157682013636 17.770987086595426 -99.45870993608825
rradius 124.66016989215433
rwrist -22.193821970216018
rhand -16.97351662672279 39.64173709078016
rfingers 7.12502
rthumb 9.243878215078421 9.605797205982551
30
root 0.419647933612328 18.45240469499808 -17.071004081464395 6.731938764873278 -2.8244572724834036 -1.7224676748296237
lfemur -28.925596722918673 -2.359637344804005 -21.097277126052653
ltibia 41.950100445641084
lfoot 7.324167218601494 -18.887302237741466
ltoes -7.996727991505614
rfemur 11.252369170327945 8.89843479830259 30.576662094356454
rtibia 31.060035358951698
rfoot 24.37096158210479 -3.5952085434607737
rtoes 6.361051579550536
lowerback 12.614976030101657 1.3738409619040264 1.4746165285639004
upperback -1.646618121980039 1.8556219009956196 -0.5192053323937229
thorax -9.39823859263137 0.9482476348728603 0.013673167961862687
lowerneck -16.723251389390906 -4.093496271504646 -2.623281906747931
upperneck 8.919189252937386 -5.340733348508879 4.014860962501062
head 4.672697783420503 -2.5790890025772675 1.3656166886154608
lclavicle -1.3367475555445015e-15 -2.7589793148707754e-15
lhumerus -63.75651250073617 1.103194949582286 83.23011351056776
lradius 101.13239526132716
lwrist 29.536670306030924
lhand -20.968022585408267 4.446570661189957
lfingers 7.12502
lthumb 5.444776894339095 33.714787295945264
rclavicle -1.3367475555117186e-15 -2.758979314848318e-15
rhumerus -41.9012061210117 17.62835648677614 -99.719449776309
rradius 124.38113130557693
rwrist -21.840993980266635
rhand -16.96289835237736 39.24589643217207
rfingers 7.12502
rthumb 9.27694792691235 9.106300528093675
31
root 0.42897748577163175 18.45194958790715 -16.102406888093064 6.804025747222532 -2.8873596037067046 -1.661874431669084
lfemur -27.128044839276697 -2.367877469524198 -21.539238234286575
ltibia 37.78994088829696
lfoot 7.805269998608837 -18.85326676650731
ltoes -9.657840464007656
rfemur 10.456117194273979 9.19029354217651 30.531597825313167
rtibia 33.10557272887403
rfoot 24.216754130083345 -4.027693044971291
rtoes 6.640949764093444
lowerback 12.510858131521935 1.3495995620273171 1.3921307055837857
upperback -1.7807178235355015 1.9306554977733579 -0.611496636698206
thorax -9.607254826903102 1.0251640818859484 0.02741596629241158
lowerneck -16.088957253387004 -4.274442992738825 -2.685194499804724
upperneck 8.589629543293553 -5.773170228396552 4.212711095980129
head 4.608560197813885 -2.7385575219205096 1.3743833349073158
lclavicle -1.336747555535318e-15 -2.7589793148658753e-15
lhumerus -62.93177855228329 0.9915450834519701 83.15471264737698
lradius 100.93146284356678
lwrist 29.367329250814834
lhand -20.86560415447787 4.516457123976589
lfingers 7.12502
lthumb 5.3655529632486605 33.516030365649954
rclavicle -1.3367475555072523e-15 -2.7589793148474507e-15
rhumerus -42.25825695806719 17.468118919854383 -99.79859969960054
rradius 124.10155146739808
rwrist -21.37607628306188
rhand -16.973173587742124 38.94503885866902
rfingers 7.12502
rthumb 9.290454514413877 8.89626053992328
32
root 0.4387715925359297 18.45951699504252 -15.16759696857891 6.827277419548495 -2.9866730369520766 -1.6083355103734152
lfemur -25.350436719454912 -2.242389719041738 -21.955680640039457
ltibia 34.264060618723086
lfoot 8.118754669934358 -18.44098479745879
ltoes -10.902969971657921
rfemur 9.3861863114093 9.338761044126775 30.41239975807115
rtibia 35.35826010062193
rfoot 23.753953509995 -4.574525382450818
rtoes 7.181034166966807
lowerback 12.448149656094742 1.3166495891143781 1.2741267016275803
upperback -1.8659441149406089 1.901446302490143 -0.6686363088432521
thorax -9.733658774291557 0.99479088718082 -0.01076777234514506
lowerneck -16.191001392023782 -4.357483694504025 -2.6430444286966055
upperneck 8.2916580682042 -5.913055378583865 4.420966143800915
head 4.669045848828888 -2.760640823571361 1.3815897115001003
lclavicle -1.3367475555512774e-15 -2.758979314879247e-15
lhumerus -61.89477798090187 0.9470582315814964 83.2872103778749
lradius 100.66709621536839
lwrist 29.240123871160442
lhand -21.120288906922678 4.18075090952819
lfingers 7.12502
lthumb 5.018420201001539 33.204707681814845
rclavicle -1.3367475554888024e-15 -2.7589793148339434e-15
rhumerus -42.68854632008435 17.24290971046024 -99.75119359383281
rradius 123.82089349189195
rwrist -21.538100906171888
rhand -16.871224864404958 38.94446643189144
rfingers 7.12502
rthumb 9.324426769404958 9.011102032526773
